<?xml version="1.0" standalone="no"?>
<!DOCTYPE svg PUBLIC "-//W3C//DTD SVG 20010904//EN"
 "http://www.w3.org/TR/2001/REC-SVG-20010904/DTD/svg10.dtd">
<svg version="1.0" xmlns="http://www.w3.org/2000/svg"
 width="321.000000pt" height="342.000000pt" viewBox="0 0 321.000000 342.000000"
 preserveAspectRatio="xMidYMid meet">
<metadata>
Created by potrace 1.16, written by Peter Selinger 2001-2019
</metadata>
<g transform="translate(0.000000,342.000000) scale(0.100000,-0.100000)"
fill="#511cf7" stroke="none">
<path d="M741 2992 l-740 -427 0 -855 -1 -855 183 -105 c100 -57 433 -249 740
-426 l558 -322 244 141 245 141 0 856 0 856 -490 283 c-269 156 -494 281 -498
279 -5 -1 -59 -32 -121 -67 -87 -51 -109 -67 -99 -76 7 -7 211 -126 453 -265
242 -139 457 -264 478 -277 l37 -23 -2 -712 -3 -713 -115 -67 c-63 -37 -121
-68 -128 -68 -7 0 -287 158 -622 352 l-610 352 0 716 0 716 610 352 c335 194
615 352 622 352 7 0 288 -159 623 -353 l610 -353 5 -852 5 -852 117 68 118 67
0 855 0 855 -537 310 c-296 171 -628 363 -740 427 l-202 116 -740 -426z"/>
<path d="M1368 2783 c-62 -35 -116 -67 -120 -71 -4 -4 212 -134 480 -288 l487
-281 5 -856 5 -856 123 70 122 71 0 853 0 853 -277 160 c-153 88 -375 216
-495 285 l-216 125 -114 -65z"/>
</g>
</svg>
